<?xml version="1.0" encoding="UTF-8" standalone="no"?>
<!DOCTYPE svg PUBLIC "-//W3C//DTD SVG 1.1//EN" "http://www.w3.org/Graphics/SVG/1.1/DTD/svg11.dtd">
<svg width="100%" height="100%" viewBox="0 0 2074 2129" version="1.1" xmlns="http://www.w3.org/2000/svg" xmlns:xlink="http://www.w3.org/1999/xlink" xml:space="preserve" xmlns:serif="http://www.serif.com/" style="fill-rule:evenodd;clip-rule:evenodd;stroke-linejoin:round;stroke-miterlimit:2;">
    <g transform="matrix(3.80403,0,0,3.80403,-6420.93,-4421.11)">
        <path d="M1938.1,1232.35C1941.45,1222.89 1950.39,1216.58 1960.41,1216.58C1970.44,1216.58 1979.37,1222.9 1982.71,1232.36C2003,1289.63 2033.32,1371.62 2057.17,1420.6C2085.56,1478.92 2147.03,1583.16 2187.77,1650.93C2192.98,1659.72 2191.95,1670.87 2185.22,1678.56C2178.49,1686.25 2167.58,1688.75 2158.18,1684.75C2098.44,1659.53 2013.57,1628.21 1960.43,1628.21C1907.31,1628.21 1822.47,1659.51 1762.74,1684.73C1753.33,1688.73 1742.42,1686.23 1735.69,1678.53C1728.95,1670.84 1727.93,1659.69 1733.14,1650.89C1773.69,1583.52 1834.7,1480.12 1863.03,1421.93C1887.06,1372.58 1917.67,1289.92 1938.1,1232.35Z" style="fill:rgb(255,82,90);"/>
        <clipPath id="_clip1">
            <path d="M1938.1,1232.35C1941.45,1222.89 1950.39,1216.58 1960.41,1216.58C1970.44,1216.58 1979.37,1222.9 1982.71,1232.36C2003,1289.63 2033.32,1371.62 2057.17,1420.6C2085.56,1478.92 2147.03,1583.16 2187.77,1650.93C2192.98,1659.72 2191.95,1670.87 2185.22,1678.56C2178.49,1686.25 2167.58,1688.75 2158.18,1684.75C2098.44,1659.53 2013.57,1628.21 1960.43,1628.21C1907.31,1628.21 1822.47,1659.51 1762.74,1684.73C1753.33,1688.73 1742.42,1686.23 1735.69,1678.53C1728.95,1670.84 1727.93,1659.69 1733.14,1650.89C1773.69,1583.52 1834.7,1480.12 1863.03,1421.93C1887.06,1372.58 1917.67,1289.92 1938.1,1232.35Z"/>
        </clipPath>
        <g clip-path="url(#_clip1)">
            <g transform="matrix(1.06545,0.285487,-0.307314,1.14691,-363.222,-1855.6)">
                <clipPath id="_clip2">
                    <path d="M2744.26,1953.1L3106.53,2340.82L2852.27,2327.58L2639.19,2457.15L2744.26,1953.1Z"/>
                </clipPath>
                <g clip-path="url(#_clip2)">
                    <path d="M2852,1929L2488.03,1929L2488.03,2494.77L2852,2494.77C2852,2494.77 2886.06,2452.81 2870.87,2407.87C2846.09,2334.56 2838.91,2216.37 2838.91,2157.11C2838.91,2080.95 2852,1929 2852,1929Z" style="fill:white;fill-opacity:0.1;"/>
                </g>
            </g>
        </g>
    </g>
</svg>
